<svg width="261" height="70" viewBox="0 0 261 70" fill="none" xmlns="http://www.w3.org/2000/svg">
<rect width="261" height="70" fill="#F5F7FA"/>
<path d="M37.056 54.456C34.448 54.456 32.408 53.784 30.936 52.44C29.48 51.08 28.752 49.28 28.752 47.04C28.752 44.64 29.568 42.768 31.2 41.424C32.848 40.064 35.496 39.248 39.144 38.976L45.192 38.4L45.864 42.048L39.744 42.6C38.064 42.76 36.856 43.16 36.12 43.8C35.384 44.44 35.016 45.32 35.016 46.44C35.016 47.576 35.352 48.448 36.024 49.056C36.696 49.664 37.688 49.968 39 49.968C39.864 49.968 40.736 49.8 41.616 49.464C42.496 49.128 43.296 48.568 44.016 47.784V37.488C44.016 36.16 43.8 35.12 43.368 34.368C42.952 33.6 42.28 33.064 41.352 32.76C40.44 32.44 39.248 32.28 37.776 32.28C36.784 32.28 35.656 32.368 34.392 32.544C33.128 32.72 31.896 32.992 30.696 33.36V28.536C31.928 28.168 33.272 27.888 34.728 27.696C36.2 27.504 37.576 27.408 38.856 27.408C41.432 27.408 43.552 27.736 45.216 28.392C46.896 29.032 48.144 30.12 48.96 31.656C49.776 33.176 50.184 35.248 50.184 37.872V54H44.976L44.52 51.288H44.208C43.408 52.36 42.376 53.16 41.112 53.688C39.864 54.2 38.512 54.456 37.056 54.456ZM56.1825 54V27.816H61.3665L61.8705 31.248H62.1825C62.9825 29.968 64.0145 29.024 65.2785 28.416C66.5425 27.808 67.9105 27.504 69.3825 27.504C69.7665 27.504 70.1345 27.52 70.4865 27.552C70.8545 27.584 71.1825 27.624 71.4705 27.672V33.408C71.0865 33.344 70.6785 33.304 70.2465 33.288C69.8305 33.256 69.4145 33.24 68.9985 33.24C68.2145 33.24 67.4145 33.352 66.5985 33.576C65.7825 33.784 65.0145 34.104 64.2945 34.536C63.5745 34.968 62.9745 35.512 62.4945 36.168V54H56.1825ZM83.5016 54V23.88H72.0776V18.48H101.358V23.88H89.9336V54H83.5016ZM113.849 54.48C110.761 54.48 108.201 54.016 106.169 53.088C104.153 52.144 102.649 50.672 101.657 48.672C100.665 46.672 100.169 44.08 100.169 40.896C100.169 37.936 100.625 35.456 101.537 33.456C102.465 31.456 103.793 29.952 105.521 28.944C107.249 27.92 109.337 27.408 111.785 27.408C114.137 27.408 116.121 27.92 117.737 28.944C119.369 29.952 120.601 31.472 121.433 33.504C122.265 35.536 122.681 38.064 122.681 41.088V42.792H103.721V39H117.881L116.777 39.528C116.777 37.544 116.585 35.968 116.201 34.8C115.817 33.632 115.249 32.8 114.497 32.304C113.745 31.792 112.817 31.536 111.713 31.536C110.609 31.536 109.665 31.784 108.881 32.28C108.097 32.776 107.497 33.608 107.081 34.776C106.681 35.944 106.481 37.52 106.481 39.504V41.952C106.481 43.84 106.745 45.352 107.273 46.488C107.817 47.608 108.689 48.416 109.889 48.912C111.089 49.392 112.697 49.632 114.713 49.632C115.721 49.632 116.777 49.552 117.881 49.392C118.985 49.232 120.121 49.008 121.289 48.72V53.544C119.945 53.88 118.665 54.12 117.449 54.264C116.249 54.408 115.049 54.48 113.849 54.48ZM127.339 54V27.816H132.571L133.003 30.6H133.315C134.275 29.544 135.379 28.752 136.627 28.224C137.891 27.68 139.267 27.408 140.755 27.408C142.275 27.408 143.635 27.728 144.835 28.368C146.035 29.008 146.979 30.048 147.667 31.488C148.355 32.912 148.699 34.8 148.699 37.152V54H142.531V37.68C142.531 35.872 142.179 34.624 141.475 33.936C140.787 33.232 139.867 32.88 138.715 32.88C138.123 32.88 137.515 32.976 136.891 33.168C136.267 33.344 135.675 33.632 135.115 34.032C134.555 34.432 134.067 34.944 133.651 35.568V54H127.339ZM157.411 54V37.68C157.411 35.872 157.043 34.624 156.307 33.936C155.571 33.232 154.619 32.88 153.451 32.88C152.843 32.88 152.211 32.976 151.555 33.168C150.899 33.36 150.275 33.68 149.683 34.128C149.091 34.56 148.579 35.144 148.147 35.88L146.803 31.584C148.019 30.064 149.371 28.992 150.859 28.368C152.363 27.728 153.843 27.408 155.299 27.408C156.915 27.408 158.355 27.736 159.619 28.392C160.883 29.032 161.875 30.08 162.595 31.536C163.331 32.992 163.699 34.928 163.699 37.344V54H157.411ZM169.714 64.56V27.816H175.042L175.426 30.648H175.738C176.506 29.672 177.482 28.888 178.666 28.296C179.866 27.704 181.242 27.408 182.794 27.408C184.714 27.408 186.474 27.84 188.074 28.704C189.69 29.568 190.978 30.952 191.938 32.856C192.898 34.76 193.378 37.28 193.378 40.416C193.378 43.488 192.85 46.072 191.794 48.168C190.754 50.248 189.202 51.824 187.138 52.896C185.074 53.952 182.522 54.48 179.482 54.48C178.89 54.48 178.29 54.456 177.682 54.408C177.09 54.36 176.538 54.304 176.026 54.24V64.56H169.714ZM179.506 49.608C182.002 49.608 183.874 48.936 185.122 47.592C186.386 46.248 187.018 44.024 187.018 40.92C187.018 38.76 186.762 37.08 186.25 35.88C185.738 34.68 185.034 33.84 184.138 33.36C183.242 32.864 182.21 32.616 181.042 32.616C180.114 32.616 179.202 32.8 178.306 33.168C177.41 33.52 176.65 34.096 176.026 34.896V49.248C176.506 49.344 177.058 49.432 177.682 49.512C178.306 49.576 178.914 49.608 179.506 49.608ZM198.308 54V15.216H204.62V54H198.308ZM223.302 54.48C220.214 54.48 217.654 54.016 215.622 53.088C213.606 52.144 212.102 50.672 211.11 48.672C210.118 46.672 209.622 44.08 209.622 40.896C209.622 37.936 210.078 35.456 210.99 33.456C211.918 31.456 213.246 29.952 214.974 28.944C216.702 27.92 218.79 27.408 221.238 27.408C223.59 27.408 225.574 27.92 227.19 28.944C228.822 29.952 230.054 31.472 230.886 33.504C231.718 35.536 232.134 38.064 232.134 41.088V42.792H213.174V39H227.334L226.23 39.528C226.23 37.544 226.038 35.968 225.654 34.8C225.27 33.632 224.702 32.8 223.95 32.304C223.198 31.792 222.27 31.536 221.166 31.536C220.062 31.536 219.118 31.784 218.334 32.28C217.55 32.776 216.95 33.608 216.534 34.776C216.134 35.944 215.934 37.52 215.934 39.504V41.952C215.934 43.84 216.198 45.352 216.726 46.488C217.27 47.608 218.142 48.416 219.342 48.912C220.542 49.392 222.15 49.632 224.166 49.632C225.174 49.632 226.23 49.552 227.334 49.392C228.438 49.232 229.574 49.008 230.742 48.72V53.544C229.398 53.88 228.118 54.12 226.902 54.264C225.702 54.408 224.502 54.48 223.302 54.48Z" fill="black"/>
</svg>
