<?xml version="1.0" encoding="UTF-8" standalone="no"?>
<!DOCTYPE svg PUBLIC "-//W3C//DTD SVG 1.1//EN" "http://www.w3.org/Graphics/SVG/1.1/DTD/svg11.dtd">
<svg width="100%" height="100%" viewBox="0 0 3600 1800" version="1.1" xmlns="http://www.w3.org/2000/svg" xmlns:xlink="http://www.w3.org/1999/xlink" xml:space="preserve" xmlns:serif="http://www.serif.com/" style="fill-rule:evenodd;clip-rule:evenodd;stroke-linecap:round;stroke-linejoin:round;stroke-miterlimit:1.5;">
    <g id="Слой1" transform="matrix(0.488734,0,0,0.488734,-41.9509,-16.0682)">
        <g transform="matrix(3.72367,0,0,3.6212,535.491,-1087.67)">
            <path d="M502.341,653.52L483.91,661.527L188.829,500.01L275.164,605.367L391.51,651.967L322.513,636.349L370.357,692.996C370.357,692.996 428.468,703.24 429.413,703.204C430.358,703.168 397.799,706.343 397.799,706.343L443.409,746.625L487.122,750.627C487.122,750.627 508.521,750.209 505.154,766.674C501.256,785.744 471.652,915.767 471.652,915.767L490.523,978.411L503.699,924.61L494.615,1017.82L528.245,1112.24L561.715,1017.11C561.715,1017.11 553.346,925 553.035,924.444C552.724,923.888 565.634,978.389 565.634,978.389L584.628,915.514C584.628,915.514 555.838,794.742 551.287,766.897C550.133,759.831 551.638,752.353 564.948,751.023C582.071,749.313 612.426,746.722 612.426,746.722L659.058,706.292L626.639,703.235L686.532,692.801L734.137,636.248L665.211,651.749L781.328,605.231L867.473,500.315L572.524,661.897L554.899,654.089L549.647,594.004L583.677,547.058L477.652,596.458L470.016,623.068L485.43,612.975L509.103,612.73L502.341,653.52Z" style="fill:rgb(243,200,0);"/>
            <clipPath id="_clip1">
                <path d="M502.341,653.52L483.91,661.527L188.829,500.01L275.164,605.367L391.51,651.967L322.513,636.349L370.357,692.996C370.357,692.996 428.468,703.24 429.413,703.204C430.358,703.168 397.799,706.343 397.799,706.343L443.409,746.625L487.122,750.627C487.122,750.627 508.521,750.209 505.154,766.674C501.256,785.744 471.652,915.767 471.652,915.767L490.523,978.411L503.699,924.61L494.615,1017.82L528.245,1112.24L561.715,1017.11C561.715,1017.11 553.346,925 553.035,924.444C552.724,923.888 565.634,978.389 565.634,978.389L584.628,915.514C584.628,915.514 555.838,794.742 551.287,766.897C550.133,759.831 551.638,752.353 564.948,751.023C582.071,749.313 612.426,746.722 612.426,746.722L659.058,706.292L626.639,703.235L686.532,692.801L734.137,636.248L665.211,651.749L781.328,605.231L867.473,500.315L572.524,661.897L554.899,654.089L549.647,594.004L583.677,547.058L477.652,596.458L470.016,623.068L485.43,612.975L509.103,612.73L502.341,653.52Z"/>
            </clipPath>
            <g clip-path="url(#_clip1)">
                <g transform="matrix(1.1141,0,0,1.00041,-73.5024,6.98952)">
                    <rect x="110.314" y="414.583" width="785.719" height="337.951" style="fill:rgb(0,100,224);"/>
                </g>
            </g>
            <path d="M502.341,653.52L483.91,661.527L188.829,500.01L275.164,605.367L391.51,651.967L322.513,636.349L370.357,692.996C370.357,692.996 428.468,703.24 429.413,703.204C430.358,703.168 397.799,706.343 397.799,706.343L443.409,746.625L487.122,750.627C487.122,750.627 508.521,750.209 505.154,766.674C501.256,785.744 471.652,915.767 471.652,915.767L490.523,978.411L503.699,924.61L494.615,1017.82L528.245,1112.24L561.715,1017.11C561.715,1017.11 553.346,925 553.035,924.444C552.724,923.888 565.634,978.389 565.634,978.389L584.628,915.514C584.628,915.514 555.838,794.742 551.287,766.897C550.133,759.831 551.638,752.353 564.948,751.023C582.071,749.313 612.426,746.722 612.426,746.722L659.058,706.292L626.639,703.235L686.532,692.801L734.137,636.248L665.211,651.749L781.328,605.231L867.473,500.315L572.524,661.897L554.899,654.089L549.647,594.004L583.677,547.058L477.652,596.458L470.016,623.068L485.43,612.975L509.103,612.73L502.341,653.52Z" style="fill:none;stroke:white;stroke-opacity:0.5;stroke-width:1.11px;"/>
        </g>
        <g id="Слой2">
        </g>
        <g id="Слой3" transform="matrix(5.65115,0,0,5.65115,-528.216,-2676.49)">
            <g transform="matrix(160.233,0,0,160.233,-26970.1,-150120)">
                <g transform="matrix(1.3782,0,0,1.3782,169.15,942.38)">
                    <path d="M0.398,-0.204L0.314,-0.39L0.22,-0.204L0.398,-0.204ZM0.021,-0.018C0.03,-0.019 0.037,-0.024 0.042,-0.031C0.047,-0.038 0.051,-0.047 0.056,-0.056L0.241,-0.445C0.246,-0.454 0.25,-0.462 0.254,-0.469C0.257,-0.476 0.259,-0.483 0.259,-0.488C0.259,-0.495 0.257,-0.499 0.252,-0.502C0.247,-0.505 0.242,-0.507 0.237,-0.508L0.237,-0.526L0.406,-0.526L0.406,-0.508C0.401,-0.507 0.397,-0.505 0.392,-0.503C0.387,-0.5 0.385,-0.495 0.385,-0.488C0.385,-0.483 0.386,-0.477 0.389,-0.472C0.391,-0.467 0.394,-0.46 0.399,-0.451L0.607,-0.044C0.61,-0.037 0.615,-0.031 0.621,-0.028C0.626,-0.025 0.633,-0.021 0.64,-0.018L0.64,-0L0.464,-0L0.464,-0.018C0.467,-0.018 0.47,-0.019 0.474,-0.021C0.478,-0.023 0.48,-0.026 0.48,-0.03C0.48,-0.037 0.477,-0.045 0.472,-0.056L0.434,-0.13L0.19,-0.13L0.154,-0.059C0.147,-0.045 0.144,-0.035 0.144,-0.029C0.144,-0.022 0.15,-0.018 0.163,-0.018L0.163,-0L0.021,-0L0.021,-0.018Z" style="fill:white;fill-rule:nonzero;"/>
                </g>
                <g transform="matrix(1.3782,0,0,1.3782,170.069,942.38)">
                    <path d="M0.396,-0.292C0.42,-0.292 0.44,-0.294 0.456,-0.298C0.472,-0.301 0.485,-0.306 0.494,-0.313C0.503,-0.32 0.51,-0.328 0.514,-0.337C0.518,-0.346 0.52,-0.355 0.52,-0.366C0.52,-0.377 0.518,-0.387 0.514,-0.396C0.51,-0.405 0.503,-0.412 0.494,-0.419C0.485,-0.426 0.472,-0.431 0.456,-0.435C0.44,-0.438 0.42,-0.44 0.396,-0.44L0.223,-0.44L0.223,-0.292L0.396,-0.292ZM0.422,-0.526C0.454,-0.526 0.483,-0.523 0.509,-0.518C0.535,-0.512 0.557,-0.503 0.576,-0.491C0.595,-0.478 0.609,-0.462 0.619,-0.443C0.629,-0.423 0.634,-0.399 0.634,-0.37C0.634,-0.326 0.621,-0.292 0.595,-0.269C0.569,-0.246 0.534,-0.23 0.49,-0.222L0.623,-0.032C0.628,-0.025 0.633,-0.021 0.64,-0.02C0.646,-0.019 0.652,-0.018 0.657,-0.018L0.657,-0L0.47,-0L0.47,-0.018C0.476,-0.018 0.481,-0.019 0.486,-0.021C0.49,-0.023 0.492,-0.026 0.492,-0.029C0.492,-0.032 0.491,-0.036 0.488,-0.041C0.485,-0.045 0.481,-0.051 0.476,-0.058L0.366,-0.214L0.223,-0.214L0.223,-0.036C0.223,-0.03 0.225,-0.025 0.23,-0.023C0.234,-0.02 0.242,-0.018 0.253,-0.018L0.253,-0L0.08,-0L0.08,-0.018C0.099,-0.018 0.109,-0.024 0.109,-0.036L0.109,-0.49C0.109,-0.502 0.099,-0.508 0.08,-0.508L0.08,-0.526L0.422,-0.526Z" style="fill:white;fill-rule:nonzero;"/>
                </g>
            </g>
            <g transform="matrix(1,0,0,1,-314.525,-182.822)">
                <g transform="matrix(220.833,0,0,220.833,947.988,1064.1)">
                    <path d="M0.58,-0.418C0.58,-0.425 0.577,-0.431 0.572,-0.435C0.566,-0.438 0.556,-0.44 0.542,-0.44L0.218,-0.44L0.218,-0.316L0.414,-0.316C0.427,-0.316 0.438,-0.318 0.445,-0.322C0.452,-0.325 0.456,-0.335 0.456,-0.35L0.474,-0.35L0.474,-0.194L0.456,-0.194C0.456,-0.209 0.452,-0.219 0.445,-0.224C0.438,-0.228 0.427,-0.23 0.414,-0.23L0.218,-0.23L0.218,-0.092L0.552,-0.092C0.562,-0.092 0.57,-0.094 0.577,-0.099C0.583,-0.104 0.586,-0.11 0.586,-0.118L0.604,-0.118L0.604,0.019L0.586,0.019C0.586,0.009 0.583,0.003 0.577,0.002C0.57,0.001 0.562,-0 0.552,-0L0.086,-0L0.086,-0.018C0.091,-0.018 0.095,-0.02 0.099,-0.023C0.102,-0.025 0.104,-0.03 0.104,-0.036L0.104,-0.49C0.104,-0.496 0.102,-0.501 0.099,-0.504C0.095,-0.507 0.091,-0.508 0.086,-0.508L0.086,-0.526L0.542,-0.526C0.556,-0.526 0.566,-0.528 0.572,-0.533C0.577,-0.537 0.58,-0.543 0.58,-0.55L0.598,-0.55L0.598,-0.418L0.58,-0.418Z" style="fill:white;fill-rule:nonzero;"/>
                </g>
                <g transform="matrix(220.833,0,0,220.833,1095.28,1064.1)">
                    <path d="M0.088,-0.018C0.093,-0.018 0.098,-0.02 0.102,-0.023C0.106,-0.025 0.108,-0.03 0.108,-0.036L0.108,-0.492C0.108,-0.498 0.106,-0.502 0.102,-0.505C0.098,-0.507 0.093,-0.508 0.088,-0.508L0.088,-0.526L0.275,-0.526L0.275,-0.508C0.272,-0.508 0.268,-0.507 0.265,-0.505C0.261,-0.503 0.259,-0.5 0.259,-0.496C0.259,-0.493 0.26,-0.488 0.263,-0.483C0.266,-0.478 0.269,-0.472 0.272,-0.466L0.415,-0.206L0.559,-0.463C0.564,-0.472 0.567,-0.478 0.57,-0.484C0.572,-0.489 0.573,-0.493 0.573,-0.497C0.573,-0.504 0.569,-0.508 0.56,-0.508L0.56,-0.526L0.745,-0.526L0.745,-0.508C0.74,-0.508 0.735,-0.507 0.731,-0.505C0.727,-0.502 0.725,-0.498 0.725,-0.492L0.725,-0.036C0.725,-0.03 0.727,-0.025 0.731,-0.023C0.735,-0.02 0.74,-0.018 0.745,-0.018L0.745,-0L0.588,-0L0.588,-0.018C0.606,-0.018 0.615,-0.024 0.615,-0.036L0.615,-0.368L0.613,-0.368L0.412,-0L0.409,-0L0.212,-0.369L0.21,-0.369L0.21,-0.036C0.21,-0.024 0.219,-0.018 0.238,-0.018L0.238,-0L0.088,-0L0.088,-0.018Z" style="fill:white;fill-rule:nonzero;"/>
                </g>
                <g transform="matrix(220.833,0,0,220.833,1279.24,1064.1)">
                    <path d="M0.44,-0.306C0.462,-0.306 0.481,-0.31 0.497,-0.319C0.512,-0.328 0.52,-0.345 0.52,-0.37C0.52,-0.395 0.512,-0.412 0.497,-0.421C0.481,-0.43 0.462,-0.434 0.44,-0.434L0.227,-0.434L0.227,-0.306L0.44,-0.306ZM0.076,-0L0.076,-0.018C0.101,-0.018 0.113,-0.024 0.113,-0.036L0.113,-0.49C0.113,-0.502 0.101,-0.508 0.076,-0.508L0.076,-0.526L0.428,-0.526C0.492,-0.526 0.542,-0.514 0.579,-0.491C0.616,-0.467 0.634,-0.427 0.634,-0.37C0.634,-0.313 0.616,-0.273 0.579,-0.25C0.542,-0.226 0.492,-0.214 0.428,-0.214L0.227,-0.214L0.227,-0.036C0.227,-0.024 0.238,-0.018 0.259,-0.018L0.259,-0L0.076,-0Z" style="fill:white;fill-rule:nonzero;"/>
                </g>
                <g transform="matrix(220.833,0,0,220.833,1426.53,1064.1)">
                    <path d="M0.574,0.019C0.574,0.009 0.571,0.003 0.565,0.002C0.558,0.001 0.55,-0 0.54,-0L0.064,-0L0.064,-0.018C0.084,-0.018 0.094,-0.024 0.094,-0.036L0.094,-0.49C0.094,-0.502 0.084,-0.508 0.064,-0.508L0.064,-0.526L0.236,-0.526L0.236,-0.508C0.217,-0.508 0.208,-0.502 0.208,-0.49L0.208,-0.092L0.54,-0.092C0.55,-0.092 0.558,-0.094 0.565,-0.099C0.571,-0.104 0.574,-0.11 0.574,-0.118L0.592,-0.118L0.592,0.019L0.574,0.019Z" style="fill:white;fill-rule:nonzero;"/>
                </g>
                <g transform="matrix(220.833,0,0,220.833,1561.46,1064.1)">
                    <path d="M0.58,-0.418C0.58,-0.425 0.577,-0.431 0.572,-0.435C0.566,-0.438 0.556,-0.44 0.542,-0.44L0.218,-0.44L0.218,-0.316L0.414,-0.316C0.427,-0.316 0.438,-0.318 0.445,-0.322C0.452,-0.325 0.456,-0.335 0.456,-0.35L0.474,-0.35L0.474,-0.194L0.456,-0.194C0.456,-0.209 0.452,-0.219 0.445,-0.224C0.438,-0.228 0.427,-0.23 0.414,-0.23L0.218,-0.23L0.218,-0.092L0.552,-0.092C0.562,-0.092 0.57,-0.094 0.577,-0.099C0.583,-0.104 0.586,-0.11 0.586,-0.118L0.604,-0.118L0.604,0.019L0.586,0.019C0.586,0.009 0.583,0.003 0.577,0.002C0.57,0.001 0.562,-0 0.552,-0L0.086,-0L0.086,-0.018C0.091,-0.018 0.095,-0.02 0.099,-0.023C0.102,-0.025 0.104,-0.03 0.104,-0.036L0.104,-0.49C0.104,-0.496 0.102,-0.501 0.099,-0.504C0.095,-0.507 0.091,-0.508 0.086,-0.508L0.086,-0.526L0.542,-0.526C0.556,-0.526 0.566,-0.528 0.572,-0.533C0.577,-0.537 0.58,-0.543 0.58,-0.55L0.598,-0.55L0.598,-0.418L0.58,-0.418Z" style="fill:white;fill-rule:nonzero;"/>
                </g>
            </g>
        </g>
    </g>
</svg>
