<svg width="101" height="108" viewBox="0 0 101 108" fill="none" xmlns="http://www.w3.org/2000/svg">
<path d="M46.7486 37.4644L46.7483 37.4647C47.1008 37.8818 47.6068 38.1375 48.1521 38.1737L48.1525 38.1737C48.1973 38.1769 48.242 38.1784 48.2868 38.1784C48.7832 38.1784 49.2648 37.9949 49.6359 37.6601L61.2326 25.9231L61.2365 25.9191L61.2366 25.9193C62.0613 25.1733 62.1251 23.8993 61.3791 23.0737L46.7486 37.4644ZM46.7486 37.4644L46.7423 37.4582M46.7486 37.4644L46.7423 37.4582M46.7423 37.4582L40.6271 31.407C39.9125 30.5571 40.0196 29.2886 40.8684 28.5711L40.8684 28.571C41.7175 27.8526 42.9892 27.9596 43.7068 28.8087L43.7063 28.8092L43.7151 28.8173L48.421 33.2014L48.4926 33.2681M46.7423 37.4582L48.4926 33.2681M48.4926 33.2681L48.5609 33.1979M48.4926 33.2681L48.5609 33.1979M48.5609 33.1979L58.5358 22.9291M48.5609 33.1979L58.5358 22.9291M58.5358 22.9291C59.3605 22.1854 60.6329 22.2497 61.379 23.0736L58.5358 22.9291Z" fill="white" stroke="white" stroke-width="0.2"/>
<path d="M30.0004 60.1497L30.0003 60.1496C28.9024 58.7057 27.3068 57.7879 25.5072 57.5633C23.7075 57.3394 21.9354 57.8366 20.5159 58.9655C19.8519 59.4936 19.3157 60.1267 18.9113 60.824L18.8363 60.9532L18.7454 60.8347L18.1243 60.0253L30.0004 60.1497ZM30.0004 60.1497L38.538 71.3685C40.7616 74.2908 41.986 77.923 41.986 81.595V92.0209C41.986 93.1336 41.0841 94.0355 39.9714 94.0355C38.8586 94.0355 37.9568 93.1336 37.9568 92.0209V81.595C37.9568 78.7986 37.0245 76.0333 35.3312 73.808L26.7944 62.5892C26.7944 62.5892 26.7944 62.5892 26.7944 62.5892C26.3585 62.016 25.7239 61.6502 25.0091 61.5609L25.009 61.5609C24.2943 61.4726 23.5893 61.67 23.0255 62.1188C21.9026 63.0117 21.6967 64.6591 22.5595 65.8009L22.5599 65.8016L26.1431 70.4676C26.1432 70.4677 26.1432 70.4677 26.1432 70.4677C26.8207 71.3507 26.6547 72.6153 25.7725 73.2928C24.8904 73.9704 23.6257 73.8044 22.9473 72.9221L19.3773 68.273L19.3757 68.2709L19.3575 68.2458L19.3575 68.2457L19.3559 68.2437L14.9293 62.479L14.9293 62.4789C13.8268 61.0443 13.2195 59.2576 13.2195 57.4475V38.3709C13.2195 36.7504 11.9019 35.4319 10.2805 35.4319C8.75701 35.4319 7.49885 36.5763 7.35521 38.0938C7.35521 38.0938 7.35521 38.0938 7.35521 38.0938L5.09112 61.9621C4.99046 63.0204 5.28828 64.0704 5.93036 64.918L5.93076 64.9186L24.3334 88.881C24.6033 89.2329 24.7505 89.6641 24.7505 90.1079V92.0209C24.7505 93.1336 23.8478 94.0355 22.7359 94.0355C21.6232 94.0355 20.7213 93.1336 20.7213 92.0209V90.8265V90.7925L20.7006 90.7656L2.72711 67.362C2.72705 67.3619 2.72699 67.3619 2.72692 67.3618C1.46593 65.6967 0.88339 63.6476 1.08006 61.5821L1.08007 61.5821M30.0004 60.1497L1.08007 61.5821M1.08007 61.5821L3.34333 37.7129C3.34333 37.7129 3.34333 37.7129 3.34333 37.7129C3.68456 34.1158 6.66629 31.4027 10.2805 31.4027C14.1224 31.4027 17.2487 34.529 17.2487 38.3709V57.4475C17.2487 58.3748 17.5591 59.29 18.1243 60.0253L1.08007 61.5821Z" fill="white" stroke="white" stroke-width="0.2"/>
<path d="M83.072 60.0253L83.072 60.0253L82.45 60.8348L82.3591 60.9532L82.2842 60.824C81.8806 60.1275 81.3445 59.4945 80.6804 58.9655C79.2609 57.8366 77.4888 57.3394 75.6891 57.5633C73.8895 57.7879 72.2939 58.7057 71.196 60.1496L71.196 60.1497L62.6592 71.3685C60.4356 74.2909 59.2104 77.923 59.2104 81.5959V92.0209C59.2104 93.1336 60.113 94.0355 61.2249 94.0355C62.3377 94.0355 63.2395 93.1336 63.2395 92.0209V81.595C63.2395 78.7986 64.1718 76.0333 65.8652 73.808L74.4019 62.5892L74.402 62.5891C74.8387 62.016 75.4733 61.651 76.1879 61.561L76.1882 61.5609C76.9028 61.4726 77.6078 61.67 78.1716 62.1188C79.2937 63.0117 79.5005 64.6591 78.6368 65.801L78.6364 65.8016L75.054 70.4677C74.3764 71.3507 74.5425 72.6153 75.4246 73.2928C76.3067 73.9703 77.5713 73.8044 78.2498 72.9222L83.072 60.0253ZM83.072 60.0253C83.6364 59.29 83.9476 58.3749 83.9476 57.4475V38.3709C83.9476 34.529 87.0739 31.4027 90.9158 31.4027C94.5292 31.4027 97.5118 34.1158 97.853 37.7129L100.117 61.5821C100.313 63.6475 99.7304 65.6966 98.4778 67.3508C98.4777 67.351 98.4776 67.3511 98.4775 67.3513L80.4965 90.7656L80.4758 90.7925V90.8265V92.0209C80.4758 93.1336 79.574 94.0355 78.4612 94.0355C77.3485 94.0355 76.4467 93.1336 76.4467 92.0209V90.1087C76.4467 89.6648 76.5931 89.2327 76.8629 88.881L95.2738 64.9078L95.2742 64.9073C95.9081 64.0702 96.2058 63.0211 96.106 61.9622L96.106 61.9621L93.8419 38.0938L93.8419 38.0938C93.6974 36.5763 92.4393 35.4319 90.9158 35.4319C89.2953 35.4319 87.9768 36.7504 87.9768 38.3709V57.4475C87.9768 59.2576 87.3695 61.0443 86.2678 62.4798C86.2678 62.4798 86.2678 62.4798 86.2678 62.4798L81.8408 68.2446C81.8406 68.2449 81.8403 68.2452 81.8401 68.2455C81.836 68.2507 81.8322 68.2557 81.8294 68.2594L81.8218 68.2694L81.8206 68.2709L78.2498 72.9221L83.072 60.0253Z" fill="white" stroke="white" stroke-width="0.2"/>
<path d="M65.5233 93.7114H56.0693C55.5171 93.7114 55.0693 94.1591 55.0693 94.7114V105C55.0693 105.552 55.5171 106 56.0693 106H83.1522C83.7045 106 84.1522 105.552 84.1522 105V94.7114C84.1522 94.1591 83.7045 93.7114 83.1522 93.7114H71.4137" stroke="white" stroke-width="3.4" stroke-linecap="round" stroke-linejoin="round"/>
<path d="M33.937 93.7114H44.3938C44.9461 93.7114 45.3938 94.1591 45.3938 94.7114V105C45.3938 105.552 44.9461 106 44.3938 106H16.3081C15.7558 106 15.3081 105.552 15.3081 105V94.7114C15.3081 94.1591 15.7558 93.7114 16.308 93.7114H28.0466" stroke="white" stroke-width="3.4" stroke-linecap="round" stroke-linejoin="round"/>
<path d="M50.3936 62.8884H50.3931H50.3799C50.0318 62.8884 49.6822 62.8118 49.3661 62.667L49.4077 62.5761L49.3658 62.6669C25.0657 51.4576 20.6829 26.7113 19.9189 19.4012C19.7393 17.6892 20.6804 16.0848 22.2589 15.41C27.0014 13.3812 30.1938 8.9243 30.5907 3.77822C30.7202 2.08547 32.0936 0.800153 33.784 0.79076C33.784 0.79076 33.784 0.79076 33.7841 0.79076L66.2742 0.599953L66.2748 0.599949L66.2938 0.599951C67.951 0.599951 69.3575 1.88238 69.5016 3.52939L69.402 3.53811L69.5016 3.52941C69.951 8.67384 73.191 13.0987 77.9573 15.0776C79.5513 15.7386 80.5163 17.3341 80.357 19.0473C80.357 19.0474 80.357 19.0474 80.357 19.0474L80.2574 19.0381C79.5801 26.3491 75.493 51.0946 51.3769 62.5637L50.3936 62.8884ZM50.3936 62.8884C50.7477 62.8867 51.1025 62.8058 51.4198 62.654L50.3936 62.8884ZM23.5847 18.5097C29.448 16.0027 33.4072 10.5123 33.9421 4.16126L66.1556 3.97235C66.7647 10.3089 70.78 15.7487 76.6646 18.1913C76.8883 18.2849 77.0214 18.504 77 18.7365C76.365 25.5768 72.569 48.6048 50.3735 59.4156C28.05 48.8672 23.9873 25.8836 23.2715 19.0508C23.2471 18.817 23.3738 18.6004 23.5847 18.5097Z" fill="white" stroke="white" stroke-width="0.2"/>
<path d="M31.0204 28.8276L31.0204 28.8276C30.5801 28.952 30.1356 28.8435 29.7807 28.618C29.4268 28.3931 29.1519 28.0456 29.0537 27.6751C28.6034 25.975 28.2337 24.2484 27.9532 22.5426L27.9532 22.5424C27.7914 21.5514 28.2215 20.569 29.0529 20.0408C32.8325 17.6361 35.6048 13.9024 36.857 9.52651C37.1526 8.4922 38.096 7.7629 39.1533 7.75619L39.1534 7.75619L61.85 7.61985L61.8506 7.61985L61.8647 7.61985C62.9156 7.61985 63.8598 8.335 64.1668 9.36176L64.1668 9.36179C65.4695 13.7225 68.2839 17.4227 72.0906 19.7811L72.0414 19.8604L72.0906 19.7811C72.9277 20.3 73.3701 21.2774 73.2188 22.2695C72.9588 23.9794 72.6078 25.7116 72.1771 27.4181C71.956 28.2937 71.0838 28.8236 70.2242 28.5955L70.2241 28.5954C69.3671 28.3675 68.8554 27.4716 69.0763 26.5968C69.4369 25.1701 69.7376 23.7247 69.9711 22.293C65.8897 19.6171 62.8334 15.6062 61.2872 10.9032L39.7545 11.033C38.2619 15.7554 35.2515 19.8014 31.2014 22.5267C31.4517 23.9544 31.7686 25.395 32.1445 26.8163L31.0204 28.8276ZM31.0204 28.8276C31.8734 28.5862 32.3755 27.688 32.1445 26.8163L31.0204 28.8276Z" fill="white" stroke="white" stroke-width="0.2"/>
<path d="M67.1237 31.7191L67.1237 31.7191C67.464 30.8688 68.4098 30.4586 69.2388 30.8132C70.0665 31.1653 70.457 32.1401 70.1172 32.9891C66.2799 42.5932 60.1487 49.8772 51.8923 54.6338L51.8424 54.5471L51.8923 54.6338C51.5212 54.8475 51.1133 54.9542 50.7042 54.9542C50.3051 54.9542 49.9054 54.8527 49.5407 54.6474C41.2217 49.9857 35.0033 42.7647 31.0575 33.1917C30.7093 32.3471 31.0889 31.3672 31.9125 31.0056L67.1237 31.7191ZM67.1237 31.7191C63.6296 40.464 58.1049 47.1132 50.6988 51.4961C43.2351 47.1976 37.6301 40.6045 34.0375 31.8872L34.0375 31.8871M67.1237 31.7191L34.0375 31.8871M34.0375 31.8871C33.6879 31.041 32.737 30.6432 31.9125 31.0055L34.0375 31.8871Z" fill="white" stroke="white" stroke-width="0.2"/>
</svg>
