<svg width="36" height="37" viewBox="0 0 36 37" fill="none" xmlns="http://www.w3.org/2000/svg">
<path fill-rule="evenodd" clip-rule="evenodd" d="M36 18.1372C36 28.1541 27.9411 36.2744 18 36.2744C8.05887 36.2744 0 28.1541 0 18.1372C0 8.12029 8.05887 0 18 0C27.9411 0 36 8.12029 36 18.1372ZM23.2802 11.5878H21.0501C19.5002 11.5575 19.3602 12.8574 19.3502 13.1597V15.7996H23.1301L22.6702 19.548H19.3502V29.2212H15.5002V19.548H12.1602V15.7996H15.5002V13.1597C15.5102 10.6305 16.4302 9.76397 16.4302 9.76397C17.7802 8.01071 19.9002 8.06109 19.9002 8.06109H23.2802V11.5878Z" fill="white"/>
</svg>
