<svg id="Layer_1" data-name="Layer 1" xmlns="http://www.w3.org/2000/svg" viewBox="0 0 36.51 36.38"><defs><style>.cls-1{fill:#fff;}</style></defs><path class="cls-1" d="M18.13.38A17.88,17.88,0,1,0,36,18.26,17.87,17.87,0,0,0,18.13.38ZM28.41,14.5c0,.2,0,.41,0,.62a13.62,13.62,0,0,1-21,11.46,8.72,8.72,0,0,0,1.14.07,9.57,9.57,0,0,0,6-2,4.77,4.77,0,0,1-4.47-3.32,4.43,4.43,0,0,0,.9.09,4.79,4.79,0,0,0,1.26-.17A4.8,4.8,0,0,1,8.4,16.5v-.06a4.66,4.66,0,0,0,2.17.6,4.77,4.77,0,0,1-2.13-4,4.7,4.7,0,0,1,.65-2.41,13.56,13.56,0,0,0,9.86,5,4.86,4.86,0,0,1-.12-1.09,4.79,4.79,0,0,1,8.28-3.27,10,10,0,0,0,3-1.16A4.81,4.81,0,0,1,28,12.77,9.41,9.41,0,0,0,30.79,12,9.85,9.85,0,0,1,28.41,14.5Z"/></svg>