<svg width="36" height="36" viewBox="0 0 36 36" fill="none" xmlns="http://www.w3.org/2000/svg">
<path fill-rule="evenodd" clip-rule="evenodd" d="M36 18C36 27.9411 27.9412 36 18 36C8.05884 36 0 27.9411 0 18C0 8.05887 8.05884 0 18 0C27.9412 0 36 8.05887 36 18ZM14.05 7.50012H22.2H22.21C23.9349 7.49477 25.592 8.17216 26.8192 9.3844C28.0464 10.5966 28.7441 12.2452 28.76 13.9701V22.0301C28.76 25.6001 25.83 28.5001 22.21 28.5001H14.05C13.1951 28.5054 12.3475 28.3422 11.5557 28.0199C10.7638 27.6976 10.0432 27.2225 9.43494 26.6217C8.82678 26.0209 8.34277 25.3062 8.01086 24.5184C7.67883 23.7305 7.50525 22.885 7.5 22.0301V13.9701C7.50525 13.1152 7.67883 12.2697 8.01086 11.4819C8.34277 10.694 8.82678 9.97934 9.43494 9.37854C10.0432 8.77774 10.7638 8.30263 11.5557 7.98033C12.3475 7.65804 13.1951 7.49486 14.05 7.50012ZM25.1382 24.9707C26.1278 23.9924 26.6895 22.6617 26.7 21.2701L26.71 21.2601V14.7601C26.6995 13.3668 26.1365 12.0346 25.1447 11.056C24.1528 10.0773 22.8134 9.53214 21.42 9.54013H14.84C14.1493 9.53618 13.4645 9.66832 12.8248 9.92902C12.1851 10.1897 11.603 10.5739 11.1118 11.0595C10.6206 11.5452 10.2299 12.1228 9.96179 12.7595C9.69385 13.3961 9.55396 14.0794 9.55005 14.7701V21.2701C9.56055 22.6634 10.1235 23.9956 11.1154 24.9743C12.1071 25.9529 13.4467 26.4981 14.84 26.4901H21.42C22.8116 26.4955 24.1486 25.9491 25.1382 24.9707ZM12.8101 18.0401C12.8101 14.9901 15.3101 12.5201 18.41 12.5201C21.51 12.5201 24.01 14.9901 24.01 18.0401C24.01 21.0801 21.51 23.5601 18.41 23.5601C15.3101 23.5601 12.8101 21.0901 12.8101 18.0401ZM17.1302 21.1136C17.5365 21.279 17.9714 21.3628 18.41 21.3601C20.27 21.3601 21.77 19.8801 21.77 18.0401C21.7673 17.6015 21.6783 17.1677 21.5082 16.7635C21.3379 16.3593 21.0896 15.9925 20.7776 15.6842C20.4656 15.3759 20.0959 15.1321 19.6897 14.9667C19.2834 14.8013 18.8486 14.7175 18.41 14.7201C16.55 14.7201 15.05 16.2001 15.05 18.0401C15.0526 18.4787 15.1416 18.9126 15.3119 19.3168C15.4822 19.721 15.7303 20.0877 16.0424 20.396C16.3544 20.7043 16.7241 20.9481 17.1302 21.1136ZM25.04 12.4301C25.04 13.1985 24.4127 13.8275 23.615 13.8301C22.8273 13.8275 22.1899 13.1985 22.1899 12.4301C22.1899 12.0522 22.3401 11.6897 22.6074 11.4225C22.8746 11.1553 23.2371 11.0051 23.615 11.0051C23.9929 11.0051 24.3553 11.1553 24.6227 11.4225C24.8899 11.6897 25.04 12.0522 25.04 12.4301ZM23.615 13.8301C23.6133 13.8301 23.6117 13.8301 23.61 13.8301H23.62C23.6183 13.8301 23.6167 13.8301 23.615 13.8301Z" fill="white"/>
</svg>
