<svg width="36" height="36" viewBox="0 0 36 36" fill="none" xmlns="http://www.w3.org/2000/svg">
<path fill-rule="evenodd" clip-rule="evenodd" d="M36 18C36 27.941 27.941 36 18 36C8.05896 36 0 27.941 0 18C0 8.05901 8.05896 0 18 0C27.941 0 36 8.05901 36 18ZM25.7213 12.8565C25.8049 12.5154 25.8929 12.1567 25.8929 11.8421C25.8929 11.0321 25.353 10.6721 24.543 10.8521H24.453C22.5635 11.6169 20.674 12.3592 18.7845 13.1015C16.894 13.8442 15.0035 14.5869 13.113 15.3521C12.2581 15.7121 11.3805 16.0496 10.5029 16.3871C9.62549 16.7246 8.74805 17.0621 7.89294 17.4221C7.62305 17.5121 7.35303 17.6921 7.17297 17.8721C6.90295 18.1421 6.90295 18.4121 7.26294 18.6821C7.31348 18.7326 7.39246 18.7548 7.48389 18.7804C7.55518 18.8004 7.63403 18.8226 7.71301 18.8621C8.97302 19.3121 10.323 19.7621 11.583 20.1221C11.7299 20.1221 11.7568 20.1821 11.8108 20.302C11.8229 20.329 11.8364 20.359 11.853 20.3921C11.943 20.6171 12.0105 20.8421 12.078 21.067C12.1455 21.2921 12.213 21.5171 12.303 21.7421C12.7529 23.0021 13.203 24.3521 13.563 25.6121C13.653 25.8821 13.743 25.9721 14.0129 25.9721C14.373 25.9721 14.6429 25.8821 14.913 25.6121L16.8929 23.6321C16.983 23.5421 17.073 23.5421 17.2529 23.6321C17.9285 24.1274 18.5814 24.6227 19.2344 25.1181C19.8864 25.6127 20.5385 26.1074 21.213 26.6021C21.3929 26.7821 21.573 26.8721 21.843 26.9621C22.203 27.0521 22.563 26.9621 22.743 26.6021C22.8693 26.4126 22.907 26.2675 22.9493 26.1045C22.9673 26.0352 22.9861 25.9626 23.0129 25.8821C23.463 23.767 23.8905 21.6745 24.3181 19.5819C24.7456 17.4895 25.1731 15.397 25.623 13.2821C25.6501 13.1467 25.6853 13.0033 25.7213 12.8565ZM14.193 24.7121C14.193 24.7121 14.193 24.8021 14.103 24.8021C13.923 24.4421 13.833 24.0821 13.743 23.5421C13.3829 22.4621 13.0229 21.2921 12.663 20.1221C12.573 19.9421 12.573 19.8521 12.7529 19.7621C14.2833 18.7718 15.7911 17.8041 17.299 16.8364C18.8062 15.8691 20.3134 14.9018 21.843 13.9121C22.0229 13.8221 22.203 13.7321 22.3829 13.7321C22.473 13.7321 22.563 13.7321 22.653 13.8221C22.7233 13.9626 22.6838 13.9934 22.6204 14.043C22.6025 14.0569 22.5828 14.0723 22.563 14.0921L22.113 14.5421C20.4692 16.1249 18.7844 17.6665 17.114 19.1949C16.3149 19.926 15.5193 20.654 14.733 21.3821C14.553 21.4721 14.463 21.6521 14.463 21.9221C14.418 22.3721 14.373 22.8446 14.328 23.3171C14.283 23.7896 14.238 24.2621 14.193 24.7121Z" fill="white"/>
</svg>
