<svg width="36" height="36" viewBox="0 0 36 36" fill="none" xmlns="http://www.w3.org/2000/svg">
<path fill-rule="evenodd" clip-rule="evenodd" d="M18 0C8.05888 0 0 8.05888 0 18C0 27.9411 8.05888 36 18 36C27.9411 36 36 27.9411 36 18C36 8.05888 27.9411 0 18 0ZM28 12.9565C28 11.8787 27.1224 11 26.0435 11H9.95652C8.87723 11 8 11.8791 8 12.9565V22.5218C8 23.6012 8.87926 24.4783 9.95652 24.4783H26.0435C27.1212 24.4783 28 23.6007 28 22.5218V12.9565ZM17.5388 19.834L10.0093 12.3044H25.9907L18.4612 19.834C18.2062 20.0889 17.7938 20.0889 17.5388 19.834ZM26.6957 13.4441V22.469L22.1832 17.9565L26.6957 13.4441ZM21.2609 18.8788L25.556 23.1739H10.4441L14.7392 18.8788L16.6166 20.7562C17.3795 21.5191 18.6208 21.519 19.3835 20.7562L21.2609 18.8788ZM13.8168 17.9565L9.30437 22.469V13.4441L13.8168 17.9565Z" fill="white"/>
</svg>
